<svg width="15" height="19" viewBox="0 0 15 19" fill="none" xmlns="http://www.w3.org/2000/svg">
<path d="M7.084 18.592C4.732 18.592 2.95867 18.0133 1.764 16.856C0.588 15.6987 0 13.916 0 11.508V7.644C0 6.15067 0.317333 4.83467 0.952 3.696C1.60533 2.53867 2.52933 1.63333 3.724 0.980001C4.91867 0.326667 6.328 0 7.952 0C8.88533 0 9.69733 0.0560004 10.388 0.168001C11.0787 0.280001 11.7413 0.448 12.376 0.672V3.92C11.2 3.45333 9.80933 3.22 8.204 3.22C6.67333 3.22 5.516 3.556 4.732 4.228C3.948 4.9 3.556 5.78667 3.556 6.888V7.756C4.15333 7.32667 4.85333 7.00933 5.656 6.804C6.45867 6.58 7.196 6.468 7.868 6.468C10.0147 6.468 11.592 6.99067 12.6 8.036C13.608 9.08133 14.112 10.556 14.112 12.46C14.112 13.6547 13.86 14.7187 13.356 15.652C12.8707 16.5667 12.1147 17.2853 11.088 17.808C10.0613 18.3307 8.72667 18.592 7.084 18.592ZM7.112 15.792C8.32533 15.792 9.23067 15.5027 9.828 14.924C10.4253 14.3453 10.724 13.5707 10.724 12.6C10.724 11.5547 10.4627 10.752 9.94 10.192C9.41733 9.632 8.49333 9.352 7.168 9.352C6.552 9.352 5.92667 9.464 5.292 9.688C4.65733 9.912 4.07867 10.2013 3.556 10.556V12.264C3.556 14.616 4.74133 15.792 7.112 15.792Z" fill="white"/>
</svg>
