<svg width="13" height="19" viewBox="0 0 13 19" fill="none" xmlns="http://www.w3.org/2000/svg">
<path d="M5.32 18.312C4.77867 18.312 4.18133 18.2747 3.528 18.2C2.89333 18.144 2.268 18.0507 1.652 17.92C1.05467 17.7893 0.532 17.6307 0.0840001 17.444V14.168C0.737333 14.448 1.50267 14.672 2.38 14.84C3.276 14.9893 4.07867 15.064 4.788 15.064C6.05733 15.064 7 14.8587 7.616 14.448C8.25067 14.0373 8.568 13.3373 8.568 12.348C8.568 11.4707 8.35333 10.8267 7.924 10.416C7.51333 10.0053 6.68267 9.8 5.432 9.8H0V7.672L0.476 0H11.2L10.92 2.912H3.696L3.444 6.888H6.16C8.344 6.888 9.93067 7.364 10.92 8.316C11.9093 9.268 12.404 10.6587 12.404 12.488C12.404 14.2613 11.8067 15.68 10.612 16.744C9.436 17.7893 7.672 18.312 5.32 18.312Z" fill="white"/>
</svg>
