<svg width="13" height="19" viewBox="0 0 13 19" fill="none" xmlns="http://www.w3.org/2000/svg">
<path d="M0 18.312V16.492C0.504 15.4093 1.16667 14.4387 1.988 13.58C2.80933 12.7027 3.70533 11.8347 4.676 10.976C5.404 10.3227 6.00133 9.78133 6.468 9.352C6.93467 8.92267 7.29867 8.54 7.56 8.204C7.82133 7.868 8.008 7.52267 8.12 7.168C8.232 6.81333 8.288 6.37467 8.288 5.852C8.288 4.116 7.18667 3.248 4.984 3.248C4.23733 3.248 3.49067 3.332 2.744 3.5C2.016 3.64933 1.316 3.85467 0.644 4.116V0.784C1.35333 0.541333 2.17467 0.354667 3.108 0.224C4.06 0.0746668 4.96533 0 5.824 0C7.91467 0 9.48267 0.522667 10.528 1.568C11.592 2.59467 12.124 3.99467 12.124 5.768C12.124 7 11.816 8.05467 11.2 8.932C10.6027 9.79067 9.81867 10.64 8.848 11.48C8.08267 12.152 7.35467 12.8053 6.664 13.44C5.97333 14.056 5.39467 14.7093 4.928 15.4H12.292V18.312H0Z" fill="white"/>
</svg>
