<svg width="13" height="19" viewBox="0 0 13 19" fill="none" xmlns="http://www.w3.org/2000/svg">
<path d="M5.376 18.592C4.83467 18.592 4.228 18.5547 3.556 18.48C2.884 18.4053 2.23067 18.3027 1.596 18.172C0.961333 18.0413 0.429333 17.892 0 17.724V14.42C0.765333 14.7373 1.55867 14.9707 2.38 15.12C3.22 15.2693 4.032 15.344 4.816 15.344C6.14133 15.344 7.12133 15.1667 7.756 14.812C8.40933 14.4387 8.736 13.7667 8.736 12.796C8.736 11.9933 8.44667 11.424 7.868 11.088C7.308 10.752 6.496 10.584 5.432 10.584H2.604L2.884 7.812H5.236C6.31867 7.812 7.112 7.63467 7.616 7.28C8.12 6.90667 8.372 6.328 8.372 5.544C8.372 4.76 8.08267 4.18133 7.504 3.808C6.944 3.416 6.03867 3.22 4.788 3.22C3.98533 3.22 3.18267 3.304 2.38 3.472C1.596 3.64 0.905333 3.85467 0.308 4.116V0.896C0.905333 0.634667 1.67067 0.42 2.604 0.252C3.556 0.084 4.49867 0 5.432 0C7.672 0 9.36133 0.466667 10.5 1.4C11.6387 2.33333 12.208 3.53733 12.208 5.012C12.208 5.88933 12.0027 6.72 11.592 7.504C11.2 8.26933 10.584 8.82933 9.744 9.184C10.7147 9.48267 11.424 9.98667 11.872 10.696C12.3387 11.3867 12.572 12.2173 12.572 13.188C12.572 14.42 12.264 15.4373 11.648 16.24C11.0507 17.0427 10.2107 17.64 9.128 18.032C8.064 18.4053 6.81333 18.592 5.376 18.592Z" fill="white"/>
</svg>
